#N canvas 382 156 626 582 10;
#X obj 41 17 notein 4;
#X obj 308 302 d-adsr~ 1 10 1 100 1000;
#X text 308 285 trg lvl att dec sus% rel;
#X obj 124 409 *~;
#X obj 144 443 d-mlvl~ 108;
#X obj 124 467 *~;
#X obj 41 230 clip~ -1 1;
#X obj 42 142 mtof;
#X obj 41 176 phasor~;
#X obj 41 205 *~ 1;
#X text 54 159 tone;
#X obj 124 501 throw~ left;
#X obj 272 502 throw~ right;
#X obj 125 169 osc~;
#X obj 125 191 *~ 100;
#X obj 125 215 clip~ -1 1;
#X obj 125 127 + 0.1;
#X obj 125 147 mtof;
#X obj 40 42 stripnote;
#X obj 324 82 s-midictl 44 4;
#X text 321 61 attack;
#X text 424 36 sus%;
#X text 386 118 decay;
#X text 447 81 release;
#X obj 452 102 s-midictl 104 4;
#X text 404 0 balloons;
#X obj 124 238 *~ 0.1;
#N canvas 138 22 953 709 patt 0;
#X obj -132 129 r n;
#X msg -133 155 bang;
#X obj -133 186 f 0;
#X obj -104 187 + 1;
#X obj -73 188 % 16;
#X msg -59 114 12;
#X msg -29 117 16;
#X text 200 13 1=clear 2=random;
#X text 199 25 3=3/4 4=4/4 5=5/4;
#X msg -1 126 10;
#X obj 124 50 sel 1 2 3 4 5 6 7 8;
#X text 192 35 6=7/4 7=9/4 8=11/4;
#X msg -46 142 14;
#X msg -14 150 9;
#X msg 19 151 11;
#X floatatom -61 214 5 0 0 0 - - -;
#X obj 124 22 ctlin 6 4;
#X text 694 250 length;
#X obj 498 129 s-midictl 52 4;
#X text 500 107 select;
#X text 487 169 none;
#X obj 619 237 - 1;
#X obj -132 250 tabread notes;
#X obj -30 323 tabread velocities;
#X obj -132 215 t f f;
#X obj -83 530 outlet;
#X text -67 289 skip -1 notes;
#X obj 497 323 tabwrite notes 0;
#X obj 544 345 tabwrite velocities 0;
#X text 757 94 write;
#X obj 496 273 spigot 1;
#X msg 498 197 0;
#X msg 589 235 1;
#X obj 683 36 notein 4;
#X obj 684 96 pack f f;
#X text 515 178 erase;
#X msg 528 203 -1;
#X obj 683 60 stripnote;
#X obj 499 152 sel 32 48 33;
#X text 557 174 noteoff;
#X msg 554 191 1;
#X msg 564 208 0;
#X obj 366 106 notein 4;
#X obj 560 370 tabwrite lengths 0;
#X obj 497 296 unpack f f f;
#X text 341 232 write: pitch vel length;
#X obj 370 247 pack f f f;
#X obj 437 220 timer;
#X obj 415 134 == 0;
#X obj 416 160 sel 0 1;
#X obj 343 133 stripnote;
#X obj 371 219 f;
#X obj 438 184 t b b;
#X text 343 63 we want to time the note;
#X text 343 88 once all data is in;
#X text 343 75 and only send to pack;
#X obj 699 271 s-midictl 50 4;
#X obj 21 354 tabread lengths;
#X msg 124 115 \; notes const -1 \; velocities const 0 \; lengths const
250;
#X obj -133 285 route -1;
#X obj -82 475 pack f f;
#X msg -65 395 clear \, \$1;
#X obj -66 438 pipe -1 0 250;
#X text 51 385 schedule noteoff;
#N canvas 0 0 454 304 (subpatch) 0;
#X array velocities 16 float 2;
#X coords 0 1 16 -1 200 140 1;
#X restore 156 213 graph;
#X obj 453 471 d-out~;
#X obj 445 428 catch~ left;
#X obj 558 436 catch~ right;
#X obj 707 417 d-sys;
#N canvas 0 22 454 304 (subpatch) 0;
#X array notes 16 float 2;
#X coords 0 127 16 -0 200 140 1;
#X restore 160 380 graph;
#N canvas 0 22 454 304 (subpatch) 0;
#X array lengths 16 float 2;
#X coords 0 500 16 0 200 140 1;
#X restore 163 546 graph;
#X obj 466 594 tr808-bd~;
#X connect 0 0 1 0;
#X connect 1 0 2 0;
#X connect 2 0 3 0;
#X connect 2 0 15 0;
#X connect 2 0 24 0;
#X connect 3 0 4 0;
#X connect 4 0 2 1;
#X connect 5 0 4 1;
#X connect 6 0 4 1;
#X connect 9 0 4 1;
#X connect 10 0 58 0;
#X connect 10 2 5 0;
#X connect 10 3 6 0;
#X connect 10 4 9 0;
#X connect 10 5 12 0;
#X connect 10 6 13 0;
#X connect 10 7 14 0;
#X connect 12 0 4 1;
#X connect 13 0 4 1;
#X connect 14 0 4 1;
#X connect 16 0 10 0;
#X connect 18 0 38 0;
#X connect 21 0 27 1;
#X connect 21 0 28 1;
#X connect 21 0 43 1;
#X connect 22 0 59 0;
#X connect 23 0 60 1;
#X connect 24 0 22 0;
#X connect 24 1 23 0;
#X connect 24 1 57 0;
#X connect 30 0 44 0;
#X connect 31 0 30 1;
#X connect 32 0 30 1;
#X connect 33 0 37 0;
#X connect 33 1 37 1;
#X connect 36 0 27 0;
#X connect 37 0 34 0;
#X connect 37 1 34 1;
#X connect 38 0 31 0;
#X connect 38 1 36 0;
#X connect 38 2 40 0;
#X connect 38 2 41 0;
#X connect 38 3 32 0;
#X connect 38 3 21 0;
#X connect 40 0 27 0;
#X connect 41 0 28 0;
#X connect 42 0 50 0;
#X connect 42 1 48 0;
#X connect 42 1 50 1;
#X connect 44 0 27 0;
#X connect 44 1 28 0;
#X connect 44 2 43 0;
#X connect 46 0 30 0;
#X connect 47 0 46 2;
#X connect 48 0 49 0;
#X connect 49 0 47 0;
#X connect 49 1 52 0;
#X connect 50 0 51 1;
#X connect 50 1 46 1;
#X connect 51 0 46 0;
#X connect 52 0 51 0;
#X connect 52 1 47 1;
#X connect 56 0 43 0;
#X connect 57 0 62 2;
#X connect 59 1 61 0;
#X connect 59 1 60 0;
#X connect 60 0 25 0;
#X connect 61 0 62 0;
#X connect 62 0 60 0;
#X connect 62 1 60 1;
#X connect 66 0 65 0;
#X connect 67 0 65 1;
#X coords 0 0 1 100 0 0 0;
#X restore 198 63 pd patt;
#X obj 389 138 s-midictl 43 4;
#X obj 432 57 s-midictl 33 4;
#N canvas 633 139 468 455 filter 0;
#X obj 66 333 vcf_lp2~;
#X obj 66 370 outlet~;
#X obj 62 24 inlet~;
#X obj 96 47 s-midictl 5 4;
#X obj 152 68 s-midictl 41 4;
#X obj 97 302 +~;
#X obj 97 233 line~;
#X msg 97 201 \$1 10;
#X msg 153 201 \$1 10;
#X obj 153 233 line~;
#X obj 113 183 init 22050;
#X obj 190 180 init 1;
#X obj 152 153 exp;
#X obj 153 94 - 64;
#X obj 152 120 / 16;
#X obj 95 97 d-mtof;
#X obj 267 37 inlet~;
#X obj 301 86 s-midictl 21 4;
#X obj 299 232 line~;
#X msg 299 194 \$1 10;
#X obj 298 150 d-mtof;
#X obj 260 257 *~;
#X text 110 29 cutoff;
#X text 193 48 q;
#X text 303 71 env mod;
#X obj 301 112 / 1.5;
#X obj 360 10 inlet;
#X obj 334 33 route cutoff q mod;
#X connect 0 0 1 0;
#X connect 2 0 0 0;
#X connect 3 0 15 0;
#X connect 4 0 13 0;
#X connect 5 0 0 1;
#X connect 6 0 5 0;
#X connect 7 0 6 0;
#X connect 8 0 9 0;
#X connect 9 0 0 2;
#X connect 10 0 7 0;
#X connect 11 0 8 0;
#X connect 12 0 8 0;
#X connect 13 0 14 0;
#X connect 14 0 12 0;
#X connect 15 0 7 0;
#X connect 16 0 21 0;
#X connect 17 0 25 0;
#X connect 18 0 21 1;
#X connect 19 0 18 0;
#X connect 20 0 19 0;
#X connect 21 0 5 1;
#X connect 25 0 20 0;
#X connect 26 0 27 0;
#X connect 27 0 15 0;
#X connect 27 1 13 0;
#X connect 27 2 25 0;
#X restore 125 362 pd filter;
#N canvas 726 238 458 308 fancy 0;
#X obj 50 30 inlet;
#X obj 51 54 unpack f f;
#X obj 51 100 swap;
#X obj 53 168 spigot;
#X obj 63 191 bng 15 250 50 0 empty empty empty 17 7 0 10 -262144 -1
-1;
#X obj 100 128 == 0;
#X floatatom 146 91 5 0 0 0 - - -;
#X floatatom 103 94 5 0 0 0 - - -;
#X obj 52 127 sel 0;
#X msg 53 213 0;
#X obj 83 270 outlet;
#X connect 0 0 1 0;
#X connect 1 0 2 0;
#X connect 1 0 7 0;
#X connect 1 1 2 1;
#X connect 1 1 6 0;
#X connect 2 0 8 0;
#X connect 2 1 5 0;
#X connect 3 0 4 0;
#X connect 3 0 9 0;
#X connect 5 0 3 1;
#X connect 8 0 3 0;
#X connect 8 1 10 0;
#X connect 9 0 10 0;
#X restore 112 63 pd fancy;
#X floatatom 498 208 5 0 0 0 - - -;
#X floatatom 389 246 5 0 0 0 - - -;
#X obj 389 215 *;
#X obj 386 168 / 3;
#X obj 497 125 / 3;
#X obj 495 177 *;
#X floatatom 341 243 5 0 0 0 - - -;
#X obj 341 212 *;
#X obj 338 165 / 3;
#X obj 198 90 unpack f f;
#X msg 185 412 127;
#X obj 212 135 print;
#X obj 341 327 vsl 15 128 0 127 0 0 empty empty empty 0 -9 0 10 -262144
-1 -1 5100 1;
#X obj 361 327 vsl 15 128 0 127 0 0 empty empty empty 0 -9 0 10 -262144
-1 -1 10400 1;
#X obj 381 327 vsl 15 128 0 127 0 0 empty empty empty 0 -9 0 10 -262144
-1 -1 8300 1;
#X msg 161 325 cutoff \$1;
#X msg 200 342 q \$1;
#X msg 220 361 mod \$1;
#X obj 427 327 vsl 15 128 0 127 0 0 empty empty empty 0 -9 0 10 -262144
-1 -1 1600 1;
#X obj 447 327 vsl 15 128 0 127 0 0 empty empty empty 0 -9 0 10 -262144
-1 -1 10500 1;
#X obj 467 327 vsl 15 128 0 127 0 0 empty empty empty 0 -9 0 10 -262144
-1 -1 2200 1;
#X obj 487 327 vsl 15 128 0 127 0 0 empty empty empty 0 -9 0 10 -262144
-1 -1 900 1;
#X connect 0 0 18 0;
#X connect 0 1 18 1;
#X connect 0 1 1 0;
#X connect 1 0 3 1;
#X connect 1 0 30 1;
#X connect 3 0 5 0;
#X connect 4 0 5 1;
#X connect 5 0 11 0;
#X connect 5 0 12 0;
#X connect 6 0 30 0;
#X connect 7 0 8 0;
#X connect 8 0 9 0;
#X connect 9 0 6 0;
#X connect 13 0 14 0;
#X connect 14 0 15 0;
#X connect 15 0 26 0;
#X connect 16 0 17 0;
#X connect 17 0 13 0;
#X connect 18 0 7 0;
#X connect 18 0 16 0;
#X connect 19 0 40 0;
#X connect 24 0 36 0;
#X connect 26 0 30 0;
#X connect 27 0 41 0;
#X connect 27 0 43 0;
#X connect 28 0 35 0;
#X connect 29 0 1 4;
#X connect 30 0 3 0;
#X connect 34 0 33 0;
#X connect 34 0 1 3;
#X connect 35 0 34 1;
#X connect 35 0 34 0;
#X connect 36 0 37 1;
#X connect 36 0 37 0;
#X connect 37 0 32 0;
#X connect 37 0 1 5;
#X connect 39 0 38 0;
#X connect 39 0 1 2;
#X connect 40 0 39 1;
#X connect 40 0 39 0;
#X connect 41 0 18 0;
#X connect 41 1 18 1;
#X connect 41 1 1 0;
#X connect 42 0 4 0;
#X connect 44 0 47 0;
#X connect 45 0 48 0;
#X connect 46 0 49 0;
#X connect 47 0 30 2;
#X connect 48 0 30 2;
#X connect 49 0 30 2;
#X connect 50 0 40 0;
#X connect 51 0 35 0;
#X connect 52 0 1 4;
#X connect 53 0 36 0;
