#N canvas 54 85 746 633 10;
#N canvas 875 307 208 203 counter 0;
#X obj 10 16 inlet;
#X obj 10 145 outlet;
#X obj 10 119 f;
#X obj 44 120 + 1;
#X obj 10 96 until;
#X obj 10 44 t b b;
#X obj 54 73 0;
#X obj 10 75 200;
#X connect 0 0 5 0;
#X connect 2 0 3 0;
#X connect 2 0 1 0;
#X connect 3 0 2 1;
#X connect 4 0 2 0;
#X connect 5 0 7 0;
#X connect 5 1 6 0;
#X connect 6 0 2 1;
#X connect 7 0 4 0;
#X restore 462 213 pd counter;
#X obj 462 191 t b f;
#X obj 164 270 line~;
#X msg 163 249 0 \, 192 5;
#X obj 165 352 *~;
#X obj 21 418 *~;
#X obj 35 299 line~;
#X obj 255 322 osc~ 50;
#X obj 65 260 pack 0 1000;
#N canvas 826 261 287 340 curve 0;
#N canvas 750 295 241 238 gleichung 0;
#X obj 123 85 + 1;
#X obj 78 85 * -1;
#X obj 123 12 inlet;
#X obj 16 5 inlet;
#X obj 16 68 *;
#X obj 16 47 t f f;
#X obj 16 111 *;
#X obj 16 90 t f f;
#X obj 16 137 *;
#X obj 16 166 +;
#X obj 76 135 *;
#X obj 16 24 t f f;
#X obj 16 191 outlet;
#X connect 0 0 10 1;
#X connect 1 0 8 1;
#X connect 2 0 1 0;
#X connect 2 0 0 0;
#X connect 3 0 11 0;
#X connect 4 0 7 0;
#X connect 5 0 4 0;
#X connect 5 1 4 1;
#X connect 6 0 8 0;
#X connect 7 0 6 0;
#X connect 7 1 6 1;
#X connect 8 0 9 0;
#X connect 9 0 12 0;
#X connect 10 0 9 1;
#X connect 11 0 5 0;
#X connect 11 1 10 0;
#X restore 31 52 pd gleichung;
#X obj 31 17 inlet;
#X obj 31 230 outlet;
#X obj 136 12 inlet;
#N canvas 750 295 229 226 gleichung 0;
#X obj 123 85 + 1;
#X obj 78 85 * -1;
#X obj 123 12 inlet;
#X obj 16 5 inlet;
#X obj 16 68 *;
#X obj 16 47 t f f;
#X obj 16 111 *;
#X obj 16 90 t f f;
#X obj 16 137 *;
#X obj 16 166 +;
#X obj 76 135 *;
#X obj 16 24 t f f;
#X obj 16 191 outlet;
#X connect 0 0 10 1;
#X connect 1 0 8 1;
#X connect 2 0 1 0;
#X connect 2 0 0 0;
#X connect 3 0 11 0;
#X connect 4 0 7 0;
#X connect 5 0 4 0;
#X connect 5 1 4 1;
#X connect 6 0 8 0;
#X connect 7 0 6 0;
#X connect 7 1 6 1;
#X connect 8 0 9 0;
#X connect 9 0 12 0;
#X connect 10 0 9 1;
#X connect 11 0 5 0;
#X connect 11 1 10 0;
#X restore 31 72 pd gleichung;
#N canvas 750 295 229 226 gleichung 0;
#X obj 123 85 + 1;
#X obj 78 85 * -1;
#X obj 123 12 inlet;
#X obj 16 5 inlet;
#X obj 16 68 *;
#X obj 16 47 t f f;
#X obj 16 111 *;
#X obj 16 90 t f f;
#X obj 16 137 *;
#X obj 16 166 +;
#X obj 76 135 *;
#X obj 16 24 t f f;
#X obj 16 191 outlet;
#X connect 0 0 10 1;
#X connect 1 0 8 1;
#X connect 2 0 1 0;
#X connect 2 0 0 0;
#X connect 3 0 11 0;
#X connect 4 0 7 0;
#X connect 5 0 4 0;
#X connect 5 1 4 1;
#X connect 6 0 8 0;
#X connect 7 0 6 0;
#X connect 7 1 6 1;
#X connect 8 0 9 0;
#X connect 9 0 12 0;
#X connect 10 0 9 1;
#X connect 11 0 5 0;
#X connect 11 1 10 0;
#X restore 31 92 pd gleichung;
#N canvas 750 295 229 226 gleichung 0;
#X obj 123 85 + 1;
#X obj 78 85 * -1;
#X obj 123 12 inlet;
#X obj 16 5 inlet;
#X obj 16 68 *;
#X obj 16 47 t f f;
#X obj 16 111 *;
#X obj 16 90 t f f;
#X obj 16 137 *;
#X obj 16 166 +;
#X obj 76 135 *;
#X obj 16 24 t f f;
#X obj 16 191 outlet;
#X connect 0 0 10 1;
#X connect 1 0 8 1;
#X connect 2 0 1 0;
#X connect 2 0 0 0;
#X connect 3 0 11 0;
#X connect 4 0 7 0;
#X connect 5 0 4 0;
#X connect 5 1 4 1;
#X connect 6 0 8 0;
#X connect 7 0 6 0;
#X connect 7 1 6 1;
#X connect 8 0 9 0;
#X connect 9 0 12 0;
#X connect 10 0 9 1;
#X connect 11 0 5 0;
#X connect 11 1 10 0;
#X restore 31 112 pd gleichung;
#N canvas 750 295 229 226 gleichung 0;
#X obj 123 85 + 1;
#X obj 78 85 * -1;
#X obj 123 12 inlet;
#X obj 16 5 inlet;
#X obj 16 68 *;
#X obj 16 47 t f f;
#X obj 16 111 *;
#X obj 16 90 t f f;
#X obj 16 137 *;
#X obj 16 166 +;
#X obj 76 135 *;
#X obj 16 24 t f f;
#X obj 16 191 outlet;
#X connect 0 0 10 1;
#X connect 1 0 8 1;
#X connect 2 0 1 0;
#X connect 2 0 0 0;
#X connect 3 0 11 0;
#X connect 4 0 7 0;
#X connect 5 0 4 0;
#X connect 5 1 4 1;
#X connect 6 0 8 0;
#X connect 7 0 6 0;
#X connect 7 1 6 1;
#X connect 8 0 9 0;
#X connect 9 0 12 0;
#X connect 10 0 9 1;
#X connect 11 0 5 0;
#X connect 11 1 10 0;
#X restore 31 132 pd gleichung;
#N canvas 750 295 229 226 gleichung 0;
#X obj 123 85 + 1;
#X obj 78 85 * -1;
#X obj 123 12 inlet;
#X obj 16 5 inlet;
#X obj 16 68 *;
#X obj 16 47 t f f;
#X obj 16 111 *;
#X obj 16 90 t f f;
#X obj 16 137 *;
#X obj 16 166 +;
#X obj 76 135 *;
#X obj 16 24 t f f;
#X obj 16 191 outlet;
#X connect 0 0 10 1;
#X connect 1 0 8 1;
#X connect 2 0 1 0;
#X connect 2 0 0 0;
#X connect 3 0 11 0;
#X connect 4 0 7 0;
#X connect 5 0 4 0;
#X connect 5 1 4 1;
#X connect 6 0 8 0;
#X connect 7 0 6 0;
#X connect 7 1 6 1;
#X connect 8 0 9 0;
#X connect 9 0 12 0;
#X connect 10 0 9 1;
#X connect 11 0 5 0;
#X connect 11 1 10 0;
#X restore 31 152 pd gleichung;
#N canvas 750 295 229 226 gleichung 0;
#X obj 123 85 + 1;
#X obj 78 85 * -1;
#X obj 123 12 inlet;
#X obj 16 5 inlet;
#X obj 16 68 *;
#X obj 16 47 t f f;
#X obj 16 111 *;
#X obj 16 90 t f f;
#X obj 16 137 *;
#X obj 16 166 +;
#X obj 76 135 *;
#X obj 16 24 t f f;
#X obj 16 191 outlet;
#X connect 0 0 10 1;
#X connect 1 0 8 1;
#X connect 2 0 1 0;
#X connect 2 0 0 0;
#X connect 3 0 11 0;
#X connect 4 0 7 0;
#X connect 5 0 4 0;
#X connect 5 1 4 1;
#X connect 6 0 8 0;
#X connect 7 0 6 0;
#X connect 7 1 6 1;
#X connect 8 0 9 0;
#X connect 9 0 12 0;
#X connect 10 0 9 1;
#X connect 11 0 5 0;
#X connect 11 1 10 0;
#X restore 31 172 pd gleichung;
#N canvas 750 295 229 226 gleichung 0;
#X obj 123 85 + 1;
#X obj 78 85 * -1;
#X obj 123 12 inlet;
#X obj 16 5 inlet;
#X obj 16 68 *;
#X obj 16 47 t f f;
#X obj 16 111 *;
#X obj 16 90 t f f;
#X obj 16 137 *;
#X obj 16 166 +;
#X obj 76 135 *;
#X obj 16 24 t f f;
#X obj 16 191 outlet;
#X connect 0 0 10 1;
#X connect 1 0 8 1;
#X connect 2 0 1 0;
#X connect 2 0 0 0;
#X connect 3 0 11 0;
#X connect 4 0 7 0;
#X connect 5 0 4 0;
#X connect 5 1 4 1;
#X connect 6 0 8 0;
#X connect 7 0 6 0;
#X connect 7 1 6 1;
#X connect 8 0 9 0;
#X connect 9 0 12 0;
#X connect 10 0 9 1;
#X connect 11 0 5 0;
#X connect 11 1 10 0;
#X restore 31 192 pd gleichung;
#X obj 136 35 + 0.1;
#X obj 136 58 * 0.6;
#X connect 0 0 4 0;
#X connect 1 0 0 0;
#X connect 3 0 11 0;
#X connect 4 0 5 0;
#X connect 5 0 6 0;
#X connect 6 0 7 0;
#X connect 7 0 8 0;
#X connect 8 0 9 0;
#X connect 9 0 10 0;
#X connect 10 0 2 0;
#X connect 11 0 12 0;
#X connect 12 0 0 1;
#X connect 12 0 4 1;
#X connect 12 0 5 1;
#X connect 12 0 6 1;
#X connect 12 0 7 1;
#X connect 12 0 8 1;
#X connect 12 0 9 1;
#X connect 12 0 10 1;
#X restore 462 309 pd curve;
#X obj 461 148 t f f;
#X obj 461 169 *;
#X obj 254 290 line~;
#X obj 65 239 del 3;
#X obj 462 237 t f f;
#X obj 462 332 tabwrite \$0-attack;
#X obj 21 168 tabplay~ \$0-attack;
#X obj 21 118 t b;
#X obj 164 128 *;
#X obj 164 167 rmstodb;
#X obj 232 149 exp;
#X obj 232 128 + 5.1;
#X obj 232 106 * 3.2;
#X obj 35 245 f;
#X obj 21 9 inlet;
#X obj 281 13 loadbang;
#X obj 338 48 0.4;
#X obj 396 50 0.4;
#X obj 353 387 del;
#X obj 323 366 t b b;
#X obj 353 427 0;
#X obj 323 428 1;
#X obj 323 456 t a;
#X obj 364 495 switch~;
#X obj 323 521 outlet;
#X obj 369 365 + 3;
#X obj 22 495 outlet~;
#X text 473 415 Author: Roman Haefeli;
#X msg 473 444 version 0.0.1;
#X text 279 65 gain;
#X text 334 65 decay;
#X text 400 69 click;
#X obj 164 107 t f f;
#X text 372 522 switch~;
#X obj 281 47 0.8;
#X obj 165 299 d-gt~ 38;
#X obj 462 263 moses 39;
#X obj 462 286 / 40;
#X obj 461 351 table \$0-attack 39;
#X obj 80 350 d-lt~ 39;
#X obj 21 360 *~;
#X obj 533 43 vsl 15 128 0 1 0 0 empty empty empty 0 -9 0 10 -262144
-1 -1 0 1;
#X obj 563 43 vsl 15 128 0 1 0 0 empty empty empty 0 -9 0 10 -262144
-1 -1 0 1;
#X obj 593 43 vsl 15 128 0 1 0 0 empty empty empty 0 -9 0 10 -262144
-1 -1 0 1;
#X obj 255 247 pack 500 50;
#X msg 255 269 \$1 \, \$2 5;
#X obj 295 195 * 10;
#X obj 295 172 t a a;
#X obj 255 227 f 500;
#X obj 21 39 route trigger gain decay click tune;
#X obj 295 145 * 50;
#X obj 623 43 vsl 15 128 0.5 2 1 0 empty empty empty 0 -9 0 10 -262144
-1 -1 0 1;
#X obj 451 51 1;
#X text 449 68 tune;
#X obj 75 440 tabwrite~ \$0out;
#X obj 130 464 table \$0out 200;
#X obj 296 298 f 0.678;
#X obj 335 275 d-1-;
#X obj 335 254 * 0.41;
#X floatatom 628 183 5 0 0 0 - - -;
#X floatatom 319 221 5 0 0 0 - - -;
#X obj 35 274 dbtorms;
#X obj 35 334 *~;
#X text 47 319 ^2 falloff;
#X connect 0 0 14 0;
#X connect 1 0 0 0;
#X connect 1 1 9 1;
#X connect 2 0 45 0;
#X connect 2 0 49 0;
#X connect 3 0 2 0;
#X connect 4 0 5 0;
#X connect 5 0 36 0;
#X connect 5 0 64 0;
#X connect 6 0 72 0;
#X connect 6 0 72 1;
#X connect 7 0 4 1;
#X connect 8 0 6 0;
#X connect 9 0 15 0;
#X connect 10 0 11 0;
#X connect 10 1 11 1;
#X connect 11 0 1 0;
#X connect 12 0 7 0;
#X connect 13 0 8 0;
#X connect 14 0 46 0;
#X connect 14 1 15 1;
#X connect 16 0 50 0;
#X connect 17 0 16 0;
#X connect 17 0 13 0;
#X connect 17 0 3 0;
#X connect 17 0 23 0;
#X connect 17 0 29 0;
#X connect 17 0 58 0;
#X connect 17 0 64 0;
#X connect 17 0 66 0;
#X connect 18 0 19 0;
#X connect 19 0 23 1;
#X connect 20 0 8 1;
#X connect 20 0 35 0;
#X connect 21 0 20 0;
#X connect 22 0 21 0;
#X connect 23 0 71 0;
#X connect 24 0 59 0;
#X connect 25 0 26 0;
#X connect 25 0 27 0;
#X connect 25 0 44 0;
#X connect 25 0 62 0;
#X connect 26 0 22 0;
#X connect 27 0 10 0;
#X connect 28 0 30 0;
#X connect 29 0 31 0;
#X connect 29 1 28 0;
#X connect 30 0 32 0;
#X connect 31 0 32 0;
#X connect 32 0 33 0;
#X connect 32 0 34 0;
#X connect 35 0 28 1;
#X connect 42 0 18 0;
#X connect 42 1 18 1;
#X connect 44 0 42 0;
#X connect 45 0 4 0;
#X connect 46 0 47 0;
#X connect 47 0 9 0;
#X connect 49 0 50 1;
#X connect 50 0 5 0;
#X connect 51 0 44 0;
#X connect 52 0 26 0;
#X connect 53 0 27 0;
#X connect 54 0 55 0;
#X connect 55 0 12 0;
#X connect 56 0 58 1;
#X connect 56 0 70 0;
#X connect 57 0 56 0;
#X connect 57 1 54 1;
#X connect 58 0 54 0;
#X connect 59 0 17 0;
#X connect 59 1 42 0;
#X connect 59 2 22 0;
#X connect 59 3 10 0;
#X connect 59 4 60 0;
#X connect 60 0 57 0;
#X connect 61 0 62 0;
#X connect 61 0 69 0;
#X connect 62 0 60 0;
#X connect 62 0 68 0;
#X connect 66 0 7 1;
#X connect 67 0 66 1;
#X connect 68 0 67 0;
#X connect 71 0 6 0;
#X connect 72 0 5 1;
