#N canvas 2 128 745 507 10;
#X obj 222 259 vline~;
#X obj 222 281 dbtorms~;
#X obj 31 255 noise~;
#X obj 32 329 *~;
#X obj 31 280 bpq2~ 1000 1 3000;
#X obj 160 201 t b b;
#X obj 103 195 t b b;
#X obj 103 175 del 30;
#X obj 103 218 1.5;
#X obj 128 219 50;
#X obj 160 223 0.7;
#X obj 185 223 0;
#X obj 103 152 t b b f;
#X obj 119 82 t f f;
#X obj 119 103 *;
#X obj 103 125 f;
#X obj 223 204 rmstodb;
#X obj 207 14 loadbang;
#X obj 34 381 outlet~;
#X msg 462 343 version 0.0.1;
#X text 460 368 Author: Roman Haefeli;
#X obj 17 3 inlet;
#X obj 17 52 b;
#X obj 207 35 0.8;
#X obj 339 300 del 2122;
#X obj 309 278 t b b;
#X obj 339 322 0;
#X obj 309 320 1;
#X obj 309 356 t a;
#X obj 324 383 switch~;
#X obj 309 404 outlet;
#X text 335 56 externals:;
#X text 333 74 [bpq2~] from the iemabs (uses [filter~] from iemlib1)
;
#X obj 34 352 hip~ 200;
#X msg 309 223 \$1 \, 0 34 \, \$1 0.5 10.5 \, 0 34 11 \, \$1 0 23 \,
0 34 23 \, \$1 0 31 \, 0 34 31 \, \$1 0 36 \, 0 360 36.5 \, 0 400 65
\, 0 400 120;
#N canvas 122 256 474 444 genclap 0;
#X obj 43 403 outlet;
#X obj 31 35 t b f;
#X obj 163 187 + 1;
#X obj 135 187 f 0;
#X msg 202 237 bang;
#X obj 31 11 inlet;
#X msg 43 216 bang;
#X text 16 211 go!;
#X msg 100 142 0;
#X floatatom 163 238 5 0 0 0 - - -;
#X obj 236 239 bng 15 250 50 0 empty empty empty 17 7 0 10 -262144
-1 -1;
#X msg 143 103 bang;
#X obj 163 214 moses 2;
#X obj 43 319 pack f f;
#X msg 42 355 \$2 \$1 \, 0 34 \$1;
#X msg 174 358 \$1 0 \, 0 360 0.5 \, 0 400 31.5 \, 0 400 90;
#X obj 174 323 f;
#X obj 80 60 s \$0-genclapvolume;
#X obj 114 297 r \$0-genclapvolume;
#X obj 43 265 d-random 0 1.5;
#X obj 143 129 d-randompipe 9 12;
#X text 292 16 how many claps?;
#X obj 292 162 - 1;
#X obj 293 37 inlet;
#X connect 1 0 6 0;
#X connect 1 0 20 0;
#X connect 1 1 8 0;
#X connect 1 1 17 0;
#X connect 2 0 3 1;
#X connect 2 0 12 0;
#X connect 3 0 2 0;
#X connect 4 0 16 0;
#X connect 5 0 1 0;
#X connect 6 0 19 0;
#X connect 8 0 3 1;
#X connect 11 0 20 0;
#X connect 12 0 9 0;
#X connect 12 0 11 0;
#X connect 12 1 4 0;
#X connect 12 1 10 0;
#X connect 13 0 14 0;
#X connect 14 0 0 0;
#X connect 15 0 0 0;
#X connect 16 0 15 0;
#X connect 18 0 16 1;
#X connect 18 0 13 1;
#X connect 19 0 13 0;
#X connect 20 0 6 0;
#X connect 20 0 3 0;
#X connect 22 0 12 1;
#X connect 23 0 22 0;
#X restore 222 236 pd genclap;
#X msg 86 12 trigger;
#X obj 300 145 d-default \$1 3;
#X text 394 147 how many claps?;
#X obj 17 31 route trigger gain trigcount;
#X connect 0 0 1 0;
#X connect 1 0 3 1;
#X connect 2 0 4 0;
#X connect 3 0 33 0;
#X connect 4 0 3 0;
#X connect 5 0 10 0;
#X connect 5 1 11 0;
#X connect 6 0 8 0;
#X connect 6 1 9 0;
#X connect 7 0 6 0;
#X connect 8 0 4 2;
#X connect 9 0 4 3;
#X connect 10 0 4 2;
#X connect 11 0 4 3;
#X connect 12 0 7 0;
#X connect 12 1 5 0;
#X connect 12 2 16 0;
#X connect 13 0 14 0;
#X connect 13 1 14 1;
#X connect 14 0 15 1;
#X connect 15 0 12 0;
#X connect 16 0 35 0;
#X connect 17 0 23 0;
#X connect 21 0 39 0;
#X connect 22 0 15 0;
#X connect 22 0 25 0;
#X connect 23 0 13 0;
#X connect 24 0 26 0;
#X connect 25 0 27 0;
#X connect 25 1 24 0;
#X connect 26 0 28 0;
#X connect 27 0 28 0;
#X connect 28 0 29 0;
#X connect 28 0 30 0;
#X connect 33 0 18 0;
#X connect 34 0 0 0;
#X connect 35 0 0 0;
#X connect 36 0 39 0;
#X connect 37 0 35 1;
#X connect 39 0 22 0;
#X connect 39 1 13 0;
#X connect 39 2 37 0;
