#N canvas 0 22 1053 662 10;
#X obj 105 111 inlet;
#X obj 435 151 inlet;
#X text 101 86 trigger;
#X obj 105 139 sel 0;
#X obj 492 151 inlet;
#X obj 554 151 inlet;
#X obj 616 151 inlet;
#X obj 689 150 inlet;
#X msg 105 170 stop;
#X text 435 129 level;
#X text 102 378 and pack with;
#X text 103 398 attack time;
#X text 31 126 if zero;
#X text 32 143 release;
#X text 12 160 and cancel;
#X text 43 177 decay;
#X text 284 272 on attack \, set a;
#X text 278 305 recall sustain value;
#X text 315 378 pack with decay time;
#X text 605 332 on release ramp;
#X text 606 349 back to zero;
#X obj 462 329 * 0.01;
#X text 47 567 Objects such as "f" and "pack" can be given dollar sign
arguments to initialize their contents from adsr's creation arguments.
Inlets are supplied to change them on the fly.;
#X text 13 2 ADSR ENVELOPE;
#X text 488 129 attack;
#X text 555 128 decay;
#X text 609 129 sustain;
#X text 686 129 release;
#X text 202 71 attack;
#X obj 194 122 t b b;
#X msg 128 290 0;
#X text 20 273 optionally;
#X text 10 291 bash to zero;
#X text 25 246 ATTACK:;
#X text 49 477 When you send this patch a positive trigger it schedules
a line~ to do an attack and decay \, and if zero \, it starts the release
ramp.;
#X text 45 629 Updated for Pd version 0.37;
#X text 265 89 test for negative trigger;
#X text 242 113 if so \, zero;
#X text 243 129 the output;
#X text 294 165 in any case;
#X text 303 355 multiply by peak level;
#X text 280 286 delay for sustain;
#X text 276 328 convert from percent;
#X text 155 340 ... then;
#X text 103 359 recall peak level;
#X text 439 113 peak;
#X text 297 149 ... do this;
#X text 47 529 Negative triggers cause the output to jump to zero and
then attack (instead of attacking from the current location).;
#X text 208 1 Arguments: level \, attack time \, decay time \, sustain
level \, release time. A \, D \, and R are in msec and S is in percent.
This patch is used as an abstraction in various examples.;
#X text 607 119 PERCENT;
#X text 590 554 adopted from Pd docs;
#X text 647 572 part of dlib;
#X text 396 638 released under the GNU General Public License v3+;
#X text 529 599 copyright damian stewart 2008;
#X text 493 613 damian@frey.co.nz | www.frey.co.nz;
#X obj 204 92 moses 0;
#X obj 250 155 t b a;
#X obj 533 511 outlet;
#X text 584 514 for switch~;
#X msg 622 384 bang;
#X msg 573 480 0;
#X msg 528 482 1;
#X obj 454 459 line;
#X obj 457 508 outlet;
#X obj 166 289 pack 0 \$1;
#X obj 166 264 f 1;
#X obj 438 281 del \$1;
#X obj 462 304 f \$3;
#X obj 499 355 * 1;
#X obj 501 379 pack 0 \$2;
#X obj 612 306 pack 0 \$4;
#X obj 626 408 del \$4;
#X connect 0 0 3 0;
#X connect 1 0 65 1;
#X connect 1 0 68 1;
#X connect 3 0 8 0;
#X connect 3 0 70 0;
#X connect 3 1 55 0;
#X connect 4 0 64 1;
#X connect 4 0 66 1;
#X connect 5 0 69 1;
#X connect 6 0 67 1;
#X connect 7 0 70 1;
#X connect 7 0 71 1;
#X connect 8 0 66 0;
#X connect 21 0 68 0;
#X connect 29 0 56 0;
#X connect 29 1 30 0;
#X connect 30 0 60 0;
#X connect 30 0 62 0;
#X connect 55 0 29 0;
#X connect 55 1 56 0;
#X connect 56 0 65 0;
#X connect 56 0 66 0;
#X connect 56 1 65 1;
#X connect 56 1 68 1;
#X connect 59 0 71 0;
#X connect 60 0 57 0;
#X connect 61 0 57 0;
#X connect 62 0 63 0;
#X connect 64 0 61 0;
#X connect 64 0 62 0;
#X connect 65 0 64 0;
#X connect 66 0 67 0;
#X connect 67 0 21 0;
#X connect 68 0 69 0;
#X connect 69 0 62 0;
#X connect 70 0 59 0;
#X connect 70 0 62 0;
#X connect 71 0 60 0;
