#N canvas 405 206 390 455 10;
#X obj 37 18 inlet;
#X obj 37 167 min;
#X obj 82 167 max;
#X obj 37 135 t a a;
#X obj 177 19 inlet;
#X obj 67 240 -;
#X obj 37 240 -;
#X obj 37 205 + 6.28319;
#X obj 177 104 d-wrap 0 6.28319;
#X obj 67 268 abs;
#X obj 37 304 min;
#X obj 37 333 outlet;
#X obj 37 104 d-wrap 0 6.28319;
#X text 277 352 part of dlib;
#X text 56 418 released under the GNU General Public License v3+;
#X text 145 393 damian@frey.co.nz | www.frey.co.nz;
#X text 176 378 copyright damian stewart 2008;
#X obj 37 49 unpack f f;
#X obj 177 64 d-default \$1 0;
#X connect 0 0 17 0;
#X connect 1 0 5 0;
#X connect 1 0 7 0;
#X connect 2 0 5 1;
#X connect 2 0 6 1;
#X connect 3 0 1 0;
#X connect 3 1 2 0;
#X connect 4 0 18 0;
#X connect 5 0 9 0;
#X connect 6 0 10 0;
#X connect 7 0 6 0;
#X connect 8 0 2 1;
#X connect 8 0 1 1;
#X connect 9 0 10 1;
#X connect 10 0 11 0;
#X connect 12 0 3 0;
#X connect 17 0 12 0;
#X connect 17 1 8 0;
#X connect 18 0 8 0;
