#N canvas 322 414 418 299 10;
#X obj 28 28 inlet~;
#X obj 28 159 outlet~;
#X obj 97 102 d-biquadcalc-lowpass \$1 \$2;
#X obj 97 27 inlet;
#X obj 250 28 inlet;
#X text 233 202 part of dlib;
#X text 22 268 released under the GNU General Public License v3+;
#X text 111 243 damian@frey.co.nz | www.frey.co.nz;
#X text 112 229 copyright damian stewart 2006-2008;
#X text 125 131 resonant lowpass based on [d-biquad~];
#X obj 28 131 d-biquad~ \$3;
#X obj 250 80 line;
#X obj 250 59 pack f \$3;
#X obj 97 80 line;
#X obj 97 59 pack f \$3;
#X obj 311 28 d-default \$3 10;
#X connect 0 0 10 0;
#X connect 2 0 10 1;
#X connect 3 0 14 0;
#X connect 4 0 12 0;
#X connect 10 0 1 0;
#X connect 11 0 2 1;
#X connect 12 0 11 0;
#X connect 13 0 2 0;
#X connect 14 0 13 0;
#X connect 15 0 12 1;
#X connect 15 0 14 1;
