#N canvas 18 346 678 376 10;
#X obj 31 33 inlet~;
#X obj 206 30 inlet~;
#X obj 369 320 outlet~;
#X obj 278 31 inlet;
#X obj 537 223 line~;
#X obj 520 248 *~;
#X obj 415 246 *~;
#X obj 449 220 line~;
#X obj 467 135 * 1.5708;
#X obj 537 135 * 1.5708;
#X obj 467 162 cos;
#X obj 537 162 sin;
#X obj 506 12 d-default \$1 0.5;
#X obj 510 77 t a a;
#X obj 510 57 max 0;
#X obj 510 35 min 1;
#X floatatom 592 215 5 0 0 0 - - -;
#X floatatom 490 204 5 0 0 0 - - -;
#X msg 449 188 \$1 5;
#X msg 536 194 \$1 5;
#X connect 0 0 6 0;
#X connect 1 0 5 0;
#X connect 3 0 12 0;
#X connect 4 0 5 1;
#X connect 5 0 2 0;
#X connect 6 0 2 0;
#X connect 7 0 6 1;
#X connect 8 0 10 0;
#X connect 9 0 11 0;
#X connect 10 0 18 0;
#X connect 10 0 17 0;
#X connect 11 0 19 0;
#X connect 11 0 16 0;
#X connect 12 0 15 0;
#X connect 13 0 8 0;
#X connect 13 1 9 0;
#X connect 14 0 13 0;
#X connect 15 0 14 0;
#X connect 18 0 7 0;
#X connect 19 0 4 0;
