#N canvas 193 25 979 668 10;
#X obj 152 62 openpanel;
#X obj 83 30 bng 15 250 50 0 empty empty empty 0 -6 0 8 -262144 -1
-1;
#X obj 254 25 d-in~;
#X obj 208 325 / 127;
#X obj 325 374 *~ 0;
#X obj 416 96 / 127;
#X floatatom 452 127 5 0 0 0 - - -;
#X floatatom 175 378 5 0 0 0 - - -;
#X obj 128 373 *~ 1;
#X text 410 52 vol of input;
#X text 196 243 vol of sample;
#N canvas 371 96 637 521 sampselect 0;
#X obj 27 480 outlet;
#X obj 23 70 - 10;
#X obj 25 441 symbol;
#X msg 311 176 /music/samples/aarononguitar/aaronplaysmellow.wav;
#X msg 346 386 /music/samples/music/wonderwandered.wav;
#X msg 108 279 /music/samples/music/further.wav;
#X obj 22 109 select 1 2 3 4 5 6 7 8;
#X msg 77 222 /music/samples/music/lambs.wav;
#X msg 23 140 /music/samples/music/moonchild.wav;
#X msg 53 197 /music/samples/music/seaworld.wav;
#X obj 23 40 s-midictl 6 3;
#X msg 121 308 /music/samples/music/buda-sauerkraut.wav;
#X msg 133 330 /music/samples/music/buda-invvendo.wav;
#X msg 91 250 /music/samples/music/giana.aiff;
#X msg 41 166 /music/samples/music/weallfalldown.wav;
#X connect 1 0 6 0;
#X connect 2 0 0 0;
#X connect 4 0 2 0;
#X connect 5 0 2 0;
#X connect 6 0 8 0;
#X connect 6 1 14 0;
#X connect 6 2 9 0;
#X connect 6 3 7 0;
#X connect 6 4 13 0;
#X connect 6 5 5 0;
#X connect 6 6 11 0;
#X connect 6 7 12 0;
#X connect 7 0 2 0;
#X connect 8 0 2 0;
#X connect 9 0 2 0;
#X connect 10 0 1 0;
#X connect 11 0 2 0;
#X connect 12 0 2 0;
#X connect 13 0 2 0;
#X connect 14 0 2 0;
#X restore 37 59 pd sampselect;
#X obj 415 374 *~ 0;
#X obj 227 548 catch~ left;
#X obj 518 539 catch~ right;
#X obj 224 373 *~ 1;
#X obj 415 567 *~;
#X obj 322 568 *~;
#X obj 575 653 *~;
#X obj 469 656 *~;
#X text 437 517 volume;
#X text 524 589 delay send lvl;
#X text 554 43 attack;
#X text 717 64 release;
#X obj 622 197 *;
#X obj 619 150 / 3;
#X obj 571 147 / 3;
#X floatatom 575 107 5 0 0 0 - - -;
#X obj 666 193 / 1.27;
#X obj 31 210 readsf~ 2;
#X obj 23 186 print;
#X obj 35 85 symbol;
#X obj 469 681 throw~ todell;
#X obj 575 677 throw~ todelr;
#X text 666 168 sus %;
#X obj 679 412 s 8loop-clear;
#X obj 706 391 s damotron-panic;
#X text 707 268 panic;
#N canvas 0 25 1247 668 dbleft 0;
#X obj 417 15 inlet~;
#X obj 185 393 f 0;
#X msg 54 350 \$1 bang;
#X text 52 328 start the new one;
#X text 125 47 hold your horses;
#X msg 218 61 1;
#X text 213 87 close spigot for;
#X obj 153 132 t a b b;
#X msg 251 62 0;
#X obj 595 87 env~;
#X obj 596 118 > 60;
#X obj 596 148 change;
#X obj 240 337 symbol stop;
#X obj 484 404 symbol stoprec;
#X obj 597 197 route 1 0;
#X obj 185 422 pack f symbol;
#X obj 357 320 spigot;
#X obj 382 398 symbol rec;
#X text 230 258 stop the old one;
#X obj 79 305 t b a;
#X obj 356 365 t b b;
#X obj 154 240 change;
#X obj 175 151 del 1;
#X text 877 21 notes input;
#X obj 440 366 t b b;
#X obj 439 318 spigot;
#X obj 154 272 t f f b b;
#X obj 152 102 spigot 1;
#X msg 187 493 bang;
#X msg 232 494 0;
#X text 213 99 1ms;
#X obj 154 192 int;
#X obj 154 171 + 0.5;
#X obj 875 279 t b f;
#X obj 894 300 t b f;
#X obj 918 321 t b f;
#X obj 815 242 inlet;
#X obj 857 239 inlet;
#X obj 900 239 inlet;
#X obj 943 238 inlet;
#X text 814 224 attack decay sust release;
#X obj 150 31 fiddle~ 2048;
#X obj 866 347 pack 1 1 100 1;
#X msg 964 46 0 0 \, 1 0 \, 2 0 \, 3 0 \, 4 0 \, 5 0 \, 6 0 \, 7 0
\, 8 0 \, 9 0 \, 10 0 \, 11 0 \, 12 0 \, 13 0 \, 14 0 \, 15 0 \, 16
0 \, 17 0 \, 18 0 \, 19 0 \, 20 0 \, 21 0 \, 22 0 \, 23 0;
#X obj 965 24 r damotron-panic;
#X obj 1017 390 s 8loop-timerstart;
#X obj 1019 353 inlet;
#X obj 644 851 + 0;
#X obj 643 731 spigot 0;
#X msg 704 710 1;
#X obj 638 693 t b f;
#X msg 1022 440 bang;
#X msg 673 713 0;
#X obj 1080 344 bng 15 250 50 0 empty empty empty 17 7 0 10 -262144
-1 -1;
#X obj 641 664 f;
#X obj 640 806 s dsys-setbpm;
#X obj 737 771 nbx 5 14 -1e+37 1e+37 0 0 empty empty empty 0 -8 0 10
-262144 -1 -1 0 256;
#X obj 764 805 nbx 10 14 -1e+37 1e+37 0 0 empty empty empty 0 -8 0
10 -262144 -1 -1 0 256;
#X obj 638 749 / 4;
#X obj 669 748 / 1000;
#X obj 721 749 / 60;
#X obj 767 674 print left;
#X obj 298 13 d-hpf3~ 200;
#X obj 290 42 d-lpf3~ 1000;
#X text 636 62 thresh;
#X obj 642 76 r damotron-reclevelthresh;
#X text 787 736 fancy thing to try and set bpm from loop length;
#X text 790 751 not very worky;
#X floatatom 791 152 5 0 0 0 - - -;
#X obj 870 142 % 24;
#X obj 154 214 % 24;
#X obj 870 185 pack f 100;
#X msg 954 272 1000;
#X floatatom 213 237 5 0 0 0 - - -;
#X msg 210 188 2;
#X obj 1102 10 inlet;
#X obj 870 42 unpack f f;
#X obj 866 107 + 12;
#X floatatom 1002 170 5 0 0 0 - - -;
#X obj 639 777 d-inv;
#X obj 185 445 route 0 1 2 3 4 5 6 7 8 9 10 11;
#X obj 408 428 route 13 14 15 16 17 18 19 20 21 22 23 12;
#X obj 362 806 outlet~;
#X obj 363 721 *~ 1;
#X obj 98 531 d-8loop3~ 48 0;
#X connect 0 0 9 0;
#X connect 0 0 62 0;
#X connect 0 0 41 0;
#X connect 0 0 84 0;
#X connect 1 0 15 0;
#X connect 5 0 27 1;
#X connect 7 0 32 0;
#X connect 7 1 22 0;
#X connect 7 2 8 0;
#X connect 8 0 27 1;
#X connect 9 0 10 0;
#X connect 10 0 11 0;
#X connect 11 0 14 0;
#X connect 11 0 25 1;
#X connect 11 0 16 1;
#X connect 12 0 15 1;
#X connect 13 0 15 1;
#X connect 14 0 20 0;
#X connect 14 1 24 0;
#X connect 15 0 80 0;
#X connect 16 0 20 0;
#X connect 17 0 15 1;
#X connect 19 0 16 0;
#X connect 19 1 2 0;
#X connect 20 0 1 0;
#X connect 20 1 17 0;
#X connect 21 0 26 0;
#X connect 22 0 5 0;
#X connect 24 0 1 0;
#X connect 24 1 13 0;
#X connect 25 0 24 0;
#X connect 26 0 19 0;
#X connect 26 1 1 1;
#X connect 26 2 1 0;
#X connect 26 3 25 0;
#X connect 27 0 7 0;
#X connect 28 0 84 1;
#X connect 29 0 84 1;
#X connect 31 0 70 0;
#X connect 32 0 31 0;
#X connect 33 0 42 0;
#X connect 33 1 42 1;
#X connect 34 0 42 0;
#X connect 34 1 42 2;
#X connect 35 0 42 0;
#X connect 35 1 42 3;
#X connect 36 0 42 0;
#X connect 37 0 33 0;
#X connect 38 0 34 0;
#X connect 39 0 35 0;
#X connect 41 0 27 0;
#X connect 42 0 84 2;
#X connect 43 0 80 0;
#X connect 44 0 43 0;
#X connect 46 0 45 0;
#X connect 46 0 51 0;
#X connect 48 0 58 0;
#X connect 49 0 48 1;
#X connect 50 0 52 0;
#X connect 50 1 48 0;
#X connect 51 0 49 0;
#X connect 52 0 48 1;
#X connect 53 0 51 0;
#X connect 53 0 45 0;
#X connect 54 0 50 0;
#X connect 54 0 61 0;
#X connect 58 0 59 0;
#X connect 59 0 60 0;
#X connect 59 0 56 0;
#X connect 60 0 79 0;
#X connect 62 0 63 0;
#X connect 65 0 10 1;
#X connect 69 0 71 0;
#X connect 70 0 21 0;
#X connect 70 0 73 0;
#X connect 71 0 80 0;
#X connect 72 0 35 0;
#X connect 74 0 26 0;
#X connect 75 0 76 0;
#X connect 76 0 68 0;
#X connect 76 0 77 0;
#X connect 76 0 78 0;
#X connect 76 1 71 1;
#X connect 77 0 69 0;
#X connect 79 0 55 0;
#X connect 79 0 57 0;
#X connect 80 0 84 1;
#X connect 80 12 81 0;
#X connect 83 0 82 0;
#X connect 84 0 83 0;
#X connect 84 1 54 0;
#X restore 302 488 pd dbleft ---;
#X obj 724 154 / 3;
#X obj 725 191 pow 2.6;
#X obj 574 194 pow 2.6;
#X text 247 742 from moonchild to seashore;
#X text 615 122 decay;
#N canvas 238 40 916 659 knobs 1;
#X obj 392 22 loadbang;
#X msg 375 73 1;
#X msg 408 76 0;
#X text 23 135 speed;
#X text 136 166 chunksz;
#X obj 456 469 *;
#X obj 277 200 - 64;
#X obj 276 223 mtof;
#X obj 276 250 / 8.1758;
#X obj 74 199 - 64;
#X obj 74 225 mtof;
#X text 627 132 rec len thresh;
#X obj 633 192 * 0.25;
#X obj 634 240 *;
#X obj 633 279 s 8loop-reclenthresh;
#X obj 141 313 s 8loop-chunksize;
#X obj 24 319 s 8loop-speed;
#X obj 275 314 s 8loop-chunkspeed;
#X obj 141 252 *;
#X text 455 383 pb len min;
#X obj 606 468 *;
#X text 605 383 pb len max;
#X text 285 142 chunk audio rate;
#X obj 443 189 s damotron-reclevelthresh;
#X text 444 117 rec level thresh;
#X floatatom 173 356 10 0 0 0 - - -;
#X floatatom 41 353 10 0 0 0 - - -;
#X obj 74 249 / 8.1758;
#X obj 607 522 s 8loop-pblenmax;
#X obj 457 523 s 8loop-pblenmin;
#X obj 606 441 * 0.355;
#X obj 455 441 * 0.25;
#X obj 277 160 d-midictl 43 3 /tron/chunkspeed;
#X obj 132 184 d-midictl 41 3 /tron/chunksize;
#X obj 23 148 d-midictl 44 3 /tron/speed;
#X obj 442 139 d-midictl 5 3;
#X obj 633 153 d-midictl 82 3;
#X obj 603 398 d-midictl 80 3;
#X obj 454 399 d-midictl 101 3;
#X obj 23 173 select 0;
#X msg 22 215 0;
#X obj 142 221 * 6;
#X obj 106 422 s 8pvoc-phaselock;
#X obj 107 381 / 127;
#X obj 22 3 vsl 15 128 0 127 0 0 empty empty empty 0 -9 0 10 -262144
-1 -1 0 1;
#X obj 134 1 vsl 15 128 0 127 0 0 empty empty empty 0 -9 0 10 -262144
-1 -1 0 1;
#X obj 275 -2 vsl 15 128 0 127 0 0 empty empty empty 0 -9 0 10 -262144
-1 -1 0 1;
#X obj 564 2 vsl 15 128 0 127 0 0 empty empty empty 0 -9 0 10 -262144
-1 -1 0 1;
#X obj 745 8 vsl 15 128 0 127 0 0 empty empty empty 0 -9 0 10 -262144
-1 -1 0 1;
#X obj 453 249 vsl 15 128 0 127 0 0 empty empty empty 0 -9 0 10 -262144
-1 -1 0 1;
#X obj 598 253 vsl 15 128 0 127 0 0 empty empty empty 0 -9 0 10 -262144
-1 -1 0 1;
#X floatatom 165 130 5 0 0 0 - - -;
#X floatatom 55 124 5 0 0 0 - - -;
#X floatatom 299 125 5 0 0 0 - - -;
#X obj 51 520 s osc;
#X msg 43 484 sendtyped /tron/speed f \$1;
#X obj 19 283 d-knobsmooth;
#X obj 137 286 d-knobsmooth;
#X obj 272 283 d-knobsmooth;
#X connect 0 0 2 0;
#X connect 0 0 1 0;
#X connect 1 0 16 0;
#X connect 2 0 14 0;
#X connect 2 0 29 0;
#X connect 2 0 57 0;
#X connect 5 0 29 0;
#X connect 6 0 7 0;
#X connect 7 0 8 0;
#X connect 8 0 58 0;
#X connect 9 0 10 0;
#X connect 10 0 27 0;
#X connect 12 0 13 1;
#X connect 12 0 13 0;
#X connect 13 0 14 0;
#X connect 18 0 57 0;
#X connect 20 0 28 0;
#X connect 27 0 26 0;
#X connect 27 0 16 0;
#X connect 27 0 56 0;
#X connect 30 0 20 1;
#X connect 30 0 20 0;
#X connect 31 0 5 1;
#X connect 31 0 5 0;
#X connect 32 0 6 0;
#X connect 33 0 41 0;
#X connect 33 0 43 0;
#X connect 34 0 39 0;
#X connect 35 0 23 0;
#X connect 36 0 12 0;
#X connect 37 0 30 0;
#X connect 38 0 31 0;
#X connect 39 0 40 0;
#X connect 39 1 9 0;
#X connect 40 0 56 0;
#X connect 41 0 18 1;
#X connect 41 0 18 0;
#X connect 43 0 42 0;
#X connect 44 0 39 0;
#X connect 44 0 52 0;
#X connect 45 0 41 0;
#X connect 45 0 51 0;
#X connect 46 0 6 0;
#X connect 46 0 53 0;
#X connect 49 0 31 0;
#X connect 50 0 30 0;
#X connect 55 0 54 0;
#X connect 56 0 16 0;
#X connect 57 0 15 0;
#X connect 57 0 25 0;
#X connect 58 0 17 0;
#X restore 30 482 pd knobs;
#X obj 213 262 t b f;
#X msg 215 285 127;
#X obj 211 306 -;
#N canvas 116 110 607 382 filters 0;
#X obj 71 213 d-lpf~;
#X obj 71 154 d-hpf2~;
#X text 280 108 lopass;
#X text 276 27 hipass;
#X obj 166 210 d-lpf~;
#X obj 168 151 d-hpf2~;
#X obj 280 68 d-mtof;
#X obj 281 150 d-mtof;
#X obj 70 47 inlet~;
#X obj 169 52 inlet~;
#X obj 70 322 outlet~;
#X obj 167 321 outlet~;
#X text 270 181 bp freq;
#X text 267 213 bp gain;
#X obj 169 272 d-eq~;
#X obj 72 275 d-eq~;
#X obj 269 230 d-midictl 104 3 /tron/bandpass/gain;
#X obj 268 197 d-midictl 33 3 /tron/bandpass/freq;
#X obj 279 45 d-midictl 21 3 /tron/highpass;
#X obj 281 127 d-midictl 50 3 /tron/lowpass;
#X connect 0 0 15 0;
#X connect 1 0 0 0;
#X connect 4 0 14 0;
#X connect 5 0 4 0;
#X connect 6 0 1 1;
#X connect 6 0 5 1;
#X connect 7 0 4 1;
#X connect 7 0 0 1;
#X connect 8 0 1 0;
#X connect 9 0 5 0;
#X connect 14 0 11 0;
#X connect 15 0 10 0;
#X connect 16 0 14 3;
#X connect 16 0 15 3;
#X connect 17 0 14 1;
#X connect 17 0 15 1;
#X connect 18 0 6 0;
#X connect 19 0 7 0;
#X restore 325 532 pd filters;
#X obj 426 536 d-mlvl~ 111;
#X obj 296 653 d-out~;
#X obj 694 295 s-midictl 6 3;
#X obj 416 70 s-midictl 102 3;
#X obj 558 64 s-midictl 72 3;
#X obj 723 87 s-midictl 40 3;
#X obj 470 595 s osc;
#X msg 476 563 /tron/level \$1;
#X obj 460 742 s record-control;
#X obj 525 602 d-mlvl~ 9 3;
#X msg 784 364 1;
#X msg 815 364 0;
#X obj 772 447 s d-knobsmooth-hold;
#X obj 690 334 sel 32 48 21 22 50 51;
#X obj 740 731 s damotron-extranotes;
#X obj 663 575 sel 97 111 101 117 105;
#X text 736 547 aoeui;
#X obj 662 525 key;
#X obj 665 599 tgl 15 0 empty empty empty 17 7 0 10 -262144 -1 -1 0
1;
#X msg 666 638 0;
#X obj 665 618 sel 0 1;
#X msg 693 639 0;
#X obj 727 597 tgl 15 0 empty empty empty 17 7 0 10 -262144 -1 -1 0
1;
#X obj 727 616 sel 0 1;
#X obj 791 598 tgl 15 0 empty empty empty 17 7 0 10 -262144 -1 -1 0
1;
#X obj 791 617 sel 0 1;
#X obj 850 599 tgl 15 0 empty empty empty 17 7 0 10 -262144 -1 -1 0
1;
#X obj 850 618 sel 0 1;
#X obj 907 600 tgl 15 0 empty empty empty 17 7 0 10 -262144 -1 -1 0
1;
#X obj 907 619 sel 0 1;
#X msg 728 636 2;
#X msg 756 637 2;
#X msg 791 637 4;
#X msg 818 638 4;
#X msg 849 637 5;
#X msg 878 638 5;
#X msg 909 639 7;
#X msg 936 639 7;
#X obj 659 550 spigot 0;
#X obj 772 526 tgl 40 0 empty empty empty 17 7 0 10 -262144 -1 -1 0
1;
#X msg 777 691 \$1 0;
#X msg 830 692 \$1 100;
#X obj 298 626 *~ 1;
#X obj 427 626 *~ 1;
#X obj 61 610 s 8loop-offset;
#X obj 105 471 vsl 15 128 0 88200 0 0 empty empty empty 0 -9 0 10 -262144
-1 -1 0 1;
#X obj 594 358 notein 3;
#X obj 593 432 pack f f;
#X obj 585 394 spigot 1;
#X obj 532 315 r damotron-extranotes;
#X obj 112 104 print sample;
#X symbolatom 110 134 40 0 0 0 - - -;
#N canvas 120 254 466 316 compl 0;
#X obj 41 21 inlet~;
#X obj 59 81 d-inv;
#X obj 60 216 line~;
#X obj 44 245 *~;
#X obj 43 270 outlet~;
#X obj 59 158 * 0.2;
#X obj 59 183 pack 1 20;
#X obj 44 119 delay~ 453;
#X text 123 121 samples \, not ms;
#X obj 61 51 envrms~;
#X connect 0 0 7 0;
#X connect 0 0 9 0;
#X connect 1 0 5 0;
#X connect 2 0 3 1;
#X connect 3 0 4 0;
#X connect 5 0 6 0;
#X connect 6 0 2 0;
#X connect 7 0 3 0;
#X connect 9 0 1 0;
#X restore 306 452 pd compl;
#N canvas 170 349 466 316 compr 0;
#X obj 41 21 inlet~;
#X obj 59 81 d-inv;
#X obj 60 216 line~;
#X obj 44 245 *~;
#X obj 43 270 outlet~;
#X obj 59 158 * 0.2;
#X obj 59 183 pack 1 20;
#X obj 44 119 delay~ 453;
#X text 123 121 samples \, not ms;
#X obj 65 52 envrms~;
#X connect 0 0 7 0;
#X connect 0 0 9 0;
#X connect 1 0 5 0;
#X connect 2 0 3 1;
#X connect 3 0 4 0;
#X connect 5 0 6 0;
#X connect 6 0 2 0;
#X connect 7 0 3 0;
#X connect 9 0 1 0;
#X restore 417 452 pd compr;
#X obj 310 596 d-pan~ 0.2;
#X obj 400 596 d-pan~ 0.8;
#X msg 32 115 open \$1;
#X obj 50 158 del 200;
#X msg 49 140 bang;
#X msg 61 179 1;
#N canvas 64 219 523 463 hanning 0;
#N canvas 0 22 450 300 (subpatch) 0;
#X array 8loop-hann 8192 float 0;
#X coords 0 1 8191 0 300 100 1;
#X restore 82 311 graph;
#X obj 378 165 osc~;
#X obj 378 190 *~ -0.5;
#X obj 378 214 +~ 0.5;
#X obj 38 173 /;
#X obj 127 142 samplerate~;
#X obj 38 251 s window-sec;
#X obj 177 204 swap;
#X obj 178 227 /;
#X obj 177 252 s window-hz;
#X obj 49 201 * 1000;
#X obj 49 228 s window-msec;
#X obj 38 115 t f b f;
#X msg 173 92 resize \$1;
#X obj 173 116 s \$0-hann;
#X obj 330 105 r window-hz;
#X msg 382 130 0;
#X obj 330 131 t f b;
#X obj 17 46 loadbang;
#X text 11 -30 calculate Hann window table (variable window size) and
constants window-hz (fundamental frequency of analysis) \, window-sec
and window-msec (analysis window size in seconds and msec).;
#X obj 110 52 bng 15 250 50 0 empty empty empty 17 7 0 10 -262144 -1
-1;
#X floatatom 329 171 5 0 0 0 - - -;
#X floatatom 174 274 5 0 0 0 - - -;
#X floatatom 191 176 5 0 0 0 - - -;
#X floatatom 49 150 5 0 0 0 - - -;
#X floatatom 268 259 5 0 0 0 - - -;
#X obj 38 88 f 8192;
#X obj 331 247 tabwrite~ 8loop-hann;
#X connect 1 0 2 0;
#X connect 2 0 3 0;
#X connect 3 0 27 0;
#X connect 4 0 6 0;
#X connect 4 0 10 0;
#X connect 5 0 4 1;
#X connect 5 0 7 1;
#X connect 5 0 23 0;
#X connect 7 0 8 0;
#X connect 7 1 8 1;
#X connect 8 0 9 0;
#X connect 8 0 25 0;
#X connect 10 0 11 0;
#X connect 10 0 22 0;
#X connect 12 0 4 0;
#X connect 12 0 7 0;
#X connect 12 0 24 0;
#X connect 12 1 5 0;
#X connect 12 2 13 0;
#X connect 13 0 14 0;
#X connect 15 0 17 0;
#X connect 16 0 1 1;
#X connect 17 0 1 0;
#X connect 17 0 21 0;
#X connect 17 1 16 0;
#X connect 17 1 27 0;
#X connect 18 0 26 0;
#X connect 20 0 26 0;
#X connect 26 0 12 0;
#X restore 63 722 pd hanning;
#X connect 0 0 31 0;
#X connect 1 0 0 0;
#X connect 2 0 4 0;
#X connect 2 1 12 0;
#X connect 3 0 7 0;
#X connect 3 0 8 1;
#X connect 3 0 15 1;
#X connect 4 0 101 0;
#X connect 5 0 4 1;
#X connect 5 0 6 0;
#X connect 5 0 12 1;
#X connect 8 0 101 0;
#X connect 11 0 31 0;
#X connect 12 0 102 0;
#X connect 13 0 91 0;
#X connect 14 0 92 0;
#X connect 15 0 102 0;
#X connect 16 0 18 0;
#X connect 16 0 104 0;
#X connect 17 0 19 0;
#X connect 17 0 103 0;
#X connect 18 0 33 0;
#X connect 19 0 32 0;
#X connect 24 0 38 2;
#X connect 25 0 24 1;
#X connect 25 0 24 0;
#X connect 26 0 41 0;
#X connect 28 0 38 3;
#X connect 29 0 8 0;
#X connect 29 1 15 0;
#X connect 29 2 31 0;
#X connect 31 0 105 0;
#X connect 31 0 99 0;
#X connect 31 0 100 0;
#X connect 38 0 48 0;
#X connect 38 0 48 1;
#X connect 39 0 40 0;
#X connect 40 0 38 4;
#X connect 41 0 38 1;
#X connect 45 0 46 0;
#X connect 45 1 47 1;
#X connect 46 0 47 0;
#X connect 47 0 3 0;
#X connect 48 0 17 0;
#X connect 48 1 16 0;
#X connect 49 0 16 1;
#X connect 49 0 17 1;
#X connect 49 1 56 0;
#X connect 50 0 57 0;
#X connect 51 0 62 0;
#X connect 52 0 5 0;
#X connect 52 0 45 0;
#X connect 53 0 26 0;
#X connect 53 0 27 0;
#X connect 54 0 39 0;
#X connect 56 0 55 0;
#X connect 58 0 18 1;
#X connect 58 0 19 1;
#X connect 59 0 61 0;
#X connect 60 0 61 0;
#X connect 62 0 35 0;
#X connect 62 1 36 0;
#X connect 62 2 38 5;
#X connect 62 4 59 0;
#X connect 62 5 60 0;
#X connect 64 0 67 0;
#X connect 64 1 71 0;
#X connect 64 2 73 0;
#X connect 64 3 75 0;
#X connect 64 4 77 0;
#X connect 66 0 87 0;
#X connect 67 0 69 0;
#X connect 68 0 89 0;
#X connect 69 0 68 0;
#X connect 69 1 70 0;
#X connect 70 0 90 0;
#X connect 71 0 72 0;
#X connect 72 0 79 0;
#X connect 72 1 80 0;
#X connect 73 0 74 0;
#X connect 74 0 81 0;
#X connect 74 1 82 0;
#X connect 75 0 76 0;
#X connect 76 0 83 0;
#X connect 76 1 84 0;
#X connect 77 0 78 0;
#X connect 78 0 85 0;
#X connect 78 1 86 0;
#X connect 79 0 89 0;
#X connect 80 0 90 0;
#X connect 81 0 89 0;
#X connect 82 0 90 0;
#X connect 83 0 89 0;
#X connect 84 0 90 0;
#X connect 85 0 89 0;
#X connect 86 0 90 0;
#X connect 87 0 64 0;
#X connect 88 0 87 1;
#X connect 89 0 63 0;
#X connect 90 0 63 0;
#X connect 91 0 50 0;
#X connect 92 0 50 1;
#X connect 94 0 93 0;
#X connect 95 0 97 0;
#X connect 95 1 96 1;
#X connect 96 0 38 6;
#X connect 97 0 96 0;
#X connect 98 0 96 0;
#X connect 101 0 38 0;
#X connect 103 0 91 0;
#X connect 103 1 92 0;
#X connect 104 0 91 0;
#X connect 104 1 92 0;
#X connect 105 0 29 0;
#X connect 105 0 30 0;
#X connect 105 0 107 0;
#X connect 106 0 108 0;
#X connect 107 0 106 0;
#X connect 108 0 29 0;
