#N canvas 713 381 450 300 10;
#X obj 58 192 outlet;
#X obj 97 87 d-random-sq 0 10;
#X obj 190 23 inlet;
#X obj 190 51 d-default \$1 10;
#X obj 58 121 delay 0;
#X obj 58 38 bang;
#X obj 58 8 inlet;
#X connect 1 0 4 1;
#X connect 2 0 3 0;
#X connect 3 0 1 2;
#X connect 4 0 0 0;
#X connect 5 0 1 0;
#X connect 5 0 4 0;
#X connect 6 0 5 0;
