#N canvas 0 22 450 300 10;
#X obj 53 164 d-humanise 50;
#X obj 53 221 timer;
#X obj 53 105 loadbang;
#X obj 53 193 t b b;
#X floatatom 53 248 5 0 0 0 - - -;
#X text 23 8 d-humanise;
#X text 23 20 ----------;
#X text 23 64 First creation argument or right inlet sets max delay
time.;
#X obj 22 193 bng 15 250 50 0 empty empty empty 17 7 0 10 -262144 -1
-1;
#X obj 53 134 metro 500;
#X obj 22 170 bng 15 250 50 0 empty empty empty 17 7 0 10 -262144 -1
-1;
#X text 22 39 Randomly delay an input bang.;
#X connect 0 0 3 0;
#X connect 0 0 8 0;
#X connect 1 0 4 0;
#X connect 2 0 9 0;
#X connect 3 0 1 0;
#X connect 3 1 1 1;
#X connect 9 0 0 0;
#X connect 9 0 10 0;
