#N canvas 76 193 466 316 10;
#X obj 60 84 t a b;
#X obj 38 31 inlet;
#X obj 34 263 outlet;
#X obj 192 120 / 2;
#X obj 192 34 inlet;
#X obj 61 213 *;
#X text 124 247 will output number between 390 and 410;
#X text 101 235 eg if range is 0.05 \, sending in 400 in left;
#X text 118 201 randomize number with a range of \$1;
#X obj 192 85 d-default \$1 0.05;
#X obj 87 175 d-random 0.95 1.05;
#X obj 139 147 d-1-;
#X obj 192 148 + 1;
#X text 117 217 right inlet sets range \, expressed as a percentage
;
#X connect 0 0 5 0;
#X connect 0 1 10 0;
#X connect 1 0 0 0;
#X connect 3 0 12 0;
#X connect 3 0 11 0;
#X connect 4 0 9 0;
#X connect 5 0 2 0;
#X connect 9 0 3 0;
#X connect 10 0 5 1;
#X connect 11 0 10 1;
#X connect 12 0 10 2;
