#N canvas 233 140 536 404 10;
#X obj 131 198 +;
#X obj 181 199 * 0.995;
#X obj 131 227 * 0.005;
#X obj 86 41 inlet;
#X obj 86 263 outlet;
#X obj 221 62 d-default \$1 0.995;
#X obj 170 120 d-1-;
#X obj 221 30 inlet;
#X text 288 231 message-rate lpf;
#X text 239 252 \$1 should be like 0.995 \, 0.999;
#X obj 374 33 sel 1;
#X obj 374 10 d-default \$2 0;
#X obj 374 55 metro 30;
#X obj 137 104 f;
#X obj 86 67 route set;
#X obj 109 147 / 0.005;
#X floatatom 163 273 5 0 0 0 - - -;
#X text 432 34 auto;
#X connect 0 0 1 0;
#X connect 0 0 2 0;
#X connect 1 0 0 1;
#X connect 2 0 4 0;
#X connect 2 0 16 0;
#X connect 3 0 14 0;
#X connect 5 0 1 1;
#X connect 5 0 6 0;
#X connect 6 0 2 1;
#X connect 6 0 15 1;
#X connect 7 0 5 0;
#X connect 10 0 12 0;
#X connect 11 0 10 0;
#X connect 12 0 13 0;
#X connect 13 0 0 0;
#X connect 14 0 4 0;
#X connect 14 0 15 0;
#X connect 14 1 13 0;
#X connect 15 0 0 1;
