#N canvas 269 314 460 364 10;
#X obj 45 8 inlet;
#X obj 45 255 outlet;
#X obj 46 211 f;
#X text 79 211 current;
#X obj 113 12 inlet;
#X obj 113 72 f;
#X obj 133 150 d-1-;
#X obj 45 162 +;
#X obj 45 96 *;
#X obj 118 248 *;
#X obj 113 39 d-default \$1 0.95;
#X floatatom 168 213 5 0 0 0 - - -;
#X floatatom 131 281 5 0 0 0 - - -;
#X text 148 73 keepAmt;
#X text 228 151 out = cur*(keepAmt)+in*(1-keepAmt);
#X connect 0 0 8 0;
#X connect 2 0 9 0;
#X connect 2 0 1 0;
#X connect 4 0 10 0;
#X connect 5 0 6 0;
#X connect 5 0 9 1;
#X connect 6 0 11 0;
#X connect 6 0 8 1;
#X connect 7 0 2 0;
#X connect 8 0 7 0;
#X connect 9 0 7 1;
#X connect 9 0 12 0;
#X connect 10 0 5 0;
