#N canvas 39 61 577 349 10;
#X obj 314 66 d-default \$3 0;
#X obj 314 108 -;
#X obj 313 20 inlet;
#X obj 419 21 inlet;
#X obj 419 44 d-default \$4 1;
#X text 362 113 output range;
#X obj 418 69 t b f;
#X obj 42 106 -~;
#X obj 40 21 inlet~;
#X obj 42 302 outlet~;
#X obj 42 141 /~;
#X obj 42 240 *~;
#X obj 42 271 +~;
#X floatatom 327 154 5 0 0 0 - - -;
#X obj 212 21 inlet;
#X obj 108 19 inlet;
#X obj 107 101 -;
#X obj 107 68 d-default \$1 0;
#X obj 212 45 d-default \$2 1;
#X text 154 112 input range;
#X obj 211 71 t b f;
#X connect 0 0 1 0;
#X connect 0 0 12 1;
#X connect 1 0 11 1;
#X connect 1 0 13 0;
#X connect 2 0 0 0;
#X connect 3 0 4 0;
#X connect 4 0 6 0;
#X connect 6 0 0 0;
#X connect 6 1 1 1;
#X connect 7 0 10 0;
#X connect 8 0 7 0;
#X connect 10 0 11 0;
#X connect 11 0 12 0;
#X connect 12 0 9 0;
#X connect 14 0 18 0;
#X connect 15 0 17 0;
#X connect 16 0 10 1;
#X connect 17 0 16 0;
#X connect 17 0 7 1;
#X connect 18 0 20 0;
#X connect 20 0 17 0;
#X connect 20 1 16 1;
