#N canvas 400 165 602 289 10;
#X obj 30 11 inlet;
#X obj 31 94 -;
#X obj 304 56 d-default \$3 0;
#X obj 304 98 -;
#X obj 303 10 inlet;
#X obj 409 11 inlet;
#X obj 202 11 inlet;
#X obj 98 9 inlet;
#X obj 97 91 -;
#X obj 97 58 d-default \$1 0;
#X obj 202 35 d-default \$2 1;
#X obj 409 34 d-default \$4 1;
#X text 352 103 output range;
#X text 144 102 input range;
#X obj 31 129 /;
#X obj 31 168 *;
#X obj 31 199 +;
#X obj 31 230 outlet;
#X obj 201 61 t b f;
#X obj 408 59 t b f;
#X connect 0 0 1 0;
#X connect 1 0 14 0;
#X connect 2 0 3 0;
#X connect 2 0 16 1;
#X connect 3 0 15 1;
#X connect 4 0 2 0;
#X connect 5 0 11 0;
#X connect 6 0 10 0;
#X connect 7 0 9 0;
#X connect 8 0 14 1;
#X connect 9 0 8 0;
#X connect 9 0 1 1;
#X connect 10 0 18 0;
#X connect 11 0 19 0;
#X connect 14 0 15 0;
#X connect 15 0 16 0;
#X connect 16 0 17 0;
#X connect 18 0 9 0;
#X connect 18 1 8 1;
#X connect 19 0 2 0;
#X connect 19 1 3 1;
