#N canvas 438 267 559 351 10;
#X obj 20 233 tgl 15 0 empty empty empty 17 7 0 10 -262144 -1 -1 1
1;
#X obj 114 239 udpreceive 3006;
#X obj 114 259 unpackOSC;
#X obj 114 281 print;
#X msg 388 135 port 3008;
#X msg 388 115 host 127.0.0.1;
#X msg 388 94 disconnect;
#X text 5 248 connected;
#X msg 388 154 timeout 10000;
#X msg 30 140 send /hello/world;
#X text 251 248 part of dlib \, copyright damian stewart 2007-8;
#X text 249 291 distributed under the terms of the GNU GPL v3+;
#X text 283 262 damian@frey.co.nz http://www.frey.co.nz;
#X text 18 5 d-osc-keepalive;
#X text 18 14 ---------------;
#X msg 18 110 sendtyped /hello/data fi 5.5 2;
#X obj 20 200 d-osc-keepalive localhost 3006;
#X text 17 39 d-osc-keepalive opens an OSC udp transmit socket \, and
then continuously tries to keep the socket open: if the client (remote)
disconnects \, it will re-open the connection as soon as possible.
;
#X connect 1 0 2 0;
#X connect 2 0 3 0;
#X connect 4 0 16 1;
#X connect 5 0 16 1;
#X connect 6 0 16 1;
#X connect 8 0 16 1;
#X connect 9 0 16 0;
#X connect 15 0 16 0;
#X connect 16 0 0 0;
