#N canvas 785 269 466 365 10;
#X obj 12 35 inlet~;
#X obj 52 277 outlet~;
#X text 14 18 dry;
#X obj 128 246 *~;
#X obj 23 244 *~;
#X obj 148 286 outlet~;
#X obj 118 36 inlet~;
#X obj 145 130 sin~;
#X obj 75 130 cos~;
#X obj 121 77 *~ 0.25;
#X text 119 18 panning \, 0 = left \, 1 = right;
#X connect 0 0 4 0;
#X connect 0 0 3 0;
#X connect 3 0 5 0;
#X connect 4 0 1 0;
#X connect 6 0 9 0;
#X connect 7 0 3 1;
#X connect 8 0 4 1;
#X connect 9 0 8 0;
#X connect 9 0 7 0;
