#N canvas 784 146 581 540 10;
#X obj 14 32 inlet~;
#X obj 14 412 outlet~;
#X obj 236 66 phasor~;
#X obj 235 46 d-default \$1 0.7;
#X obj 223 110 cos~;
#X obj 277 108 +~ 0.5;
#X obj 277 133 wrap~;
#X obj 275 157 cos~;
#X obj 273 184 *~ 2;
#X obj 272 214 +~ 2;
#X obj 273 272 *~ 0.8;
#X obj 227 133 *~ 2;
#X obj 224 157 +~ 2;
#X obj 228 340 *~ 0.8;
#X obj 392 131 d-default \$2 2.4;
#X text 341 41 speed;
#X text 504 130 depth;
#X obj 395 218 d-default \$3 -0.3;
#X text 509 217 feedback;
#X obj 96 191 delwrite~ \$0-phase2 100;
#X obj 43 163 delwrite~ \$0-phase1 100;
#X obj 227 308 vd~ \$0-phase1;
#X obj 272 244 vd~ \$0-phase2;
#X connect 0 0 1 0;
#X connect 0 0 19 0;
#X connect 0 0 20 0;
#X connect 2 0 5 0;
#X connect 2 0 4 0;
#X connect 3 0 2 0;
#X connect 4 0 11 0;
#X connect 5 0 6 0;
#X connect 6 0 7 0;
#X connect 7 0 8 0;
#X connect 8 0 9 0;
#X connect 9 0 22 0;
#X connect 10 0 19 0;
#X connect 11 0 12 0;
#X connect 12 0 21 0;
#X connect 13 0 20 0;
#X connect 14 0 11 1;
#X connect 14 0 12 1;
#X connect 14 0 8 1;
#X connect 14 0 9 1;
#X connect 17 0 10 1;
#X connect 17 0 13 1;
#X connect 21 0 1 0;
#X connect 21 0 13 0;
#X connect 22 0 10 0;
