#N canvas 663 359 450 300 10;
#X obj 36 30 inlet;
#X obj 36 233 outlet;
#X obj 75 112 d-random \$1 \$2;
#X text 335 190 part of dlib;
#X text 124 256 released under the GNU General Public License v3+;
#X text 213 231 damian@frey.co.nz | www.frey.co.nz;
#X text 213 217 copyright damian stewart 2006-2009;
#X obj 36 167 list;
#X obj 36 139 delay;
#X msg 36 111 bang;
#X obj 36 71 t b a b;
#X obj 36 198 list trim;
#X connect 0 0 10 0;
#X connect 2 0 8 1;
#X connect 7 0 11 0;
#X connect 8 0 7 0;
#X connect 9 0 8 0;
#X connect 10 0 9 0;
#X connect 10 1 7 1;
#X connect 10 2 2 0;
#X connect 11 0 1 0;
