#N canvas 0 22 448 392 10;
#X text 305 280 part of dlib;
#X text 94 346 released under the GNU General Public License v3+;
#X text 183 321 damian@frey.co.nz | www.frey.co.nz;
#X text 183 307 copyright damian stewart 2006-2009;
#X text 15 16 d-randompipe;
#X text 15 32 ------------;
#X text 15 107 arguments: \$1 \$2 - range of ms to delay (default 0..1).
;
#X msg 10 149 3;
#X obj 73 251 timer;
#X obj 48 299 print delayed;
#X obj 73 230 bng 15 250 50 0 empty empty empty 17 7 0 10 -262144 -1
-1;
#X floatatom 73 275 5 0 0 0 - - -;
#X obj 100 230 bng 15 250 50 0 empty empty empty 17 7 0 10 -262144
-1 -1;
#X msg 86 150 hello;
#X msg 45 150 bang;
#X text 15 57 delay an incoming message by a random number of ms \,
in a given range. left outlet is the original message \, right outlet
is the delay time.;
#X msg 134 150 blue green grey;
#X text 244 171 note: strips 'list' keyword;
#X msg 247 150 list one two;
#X obj 47 187 d-randompipe 10 1000;
#X connect 7 0 10 0;
#X connect 7 0 19 0;
#X connect 8 0 11 0;
#X connect 10 0 8 0;
#X connect 12 0 8 1;
#X connect 13 0 10 0;
#X connect 13 0 19 0;
#X connect 14 0 10 0;
#X connect 14 0 19 0;
#X connect 16 0 10 0;
#X connect 16 0 19 0;
#X connect 18 0 10 0;
#X connect 18 0 19 0;
#X connect 19 0 9 0;
#X connect 19 0 12 0;
