#N canvas 10 10 200 200 10;
#N canvas 20 20 420 300 META 0;
#X text 10 10 META this is a prototype of a libdir meta file;
#X text 10 10 NAME dlib;
#X text 10 10 AUTHOR Damian Stewart <damian@frey.co.nz>;
#X text 10 10 DESCRIPTION ;
#X text 10 10 LICENSE GNU GPL;
#X text 10 10 VERSION 0.1;
#X restore 10 10 pd META;
#N canvas 10 10 200 200 10;

